<?xml version="1.0" encoding="UTF-8"?>
<svg xmlns="http://www.w3.org/2000/svg" xmlns:xlink="http://www.w3.org/1999/xlink" width="70pt" height="70pt" viewBox="0 0 70 70" version="1.1">
<g id="surface1">
<path style=" stroke:none;fill-rule:nonzero;fill:rgb(0%,0%,0%);fill-opacity:1;" d="M 12.652344 25.304688 C 19.628906 25.304688 25.304688 19.628906 25.304688 12.652344 C 25.304688 5.675781 19.628906 0 12.652344 0 C 5.675781 0 0 5.675781 0 12.652344 C 0 19.628906 5.675781 25.304688 12.652344 25.304688 Z M 12.652344 2.734375 C 18.121094 2.734375 22.570312 7.183594 22.570312 12.652344 C 22.570312 18.121094 18.121094 22.570312 12.652344 22.570312 C 7.183594 22.570312 2.734375 18.121094 2.734375 12.652344 C 2.734375 7.183594 7.183594 2.734375 12.652344 2.734375 Z M 12.652344 2.734375 "/>
<path style=" stroke:none;fill-rule:nonzero;fill:rgb(0%,0%,0%);fill-opacity:1;" d="M 13.742188 15.65625 C 14.007812 15.921875 14.355469 16.058594 14.707031 16.058594 C 15.054688 16.058594 15.40625 15.921875 15.675781 15.65625 C 16.207031 15.121094 16.207031 14.253906 15.671875 13.722656 L 14.027344 12.085938 L 14.027344 6.015625 C 14.027344 5.261719 13.417969 4.648438 12.660156 4.648438 C 11.90625 4.648438 11.292969 5.261719 11.292969 6.015625 L 11.292969 12.652344 C 11.292969 13.015625 11.441406 13.363281 11.695312 13.621094 Z M 13.742188 15.65625 "/>
<path style=" stroke:none;fill-rule:nonzero;fill:rgb(0%,0%,0%);fill-opacity:1;" d="M 68.632812 45.390625 L 60.21875 45.390625 C 59.0625 43.746094 57.324219 42.578125 55.339844 42.148438 L 49.332031 40.832031 C 51.789062 39.171875 53.410156 36.359375 53.410156 33.175781 L 53.410156 27.949219 C 53.410156 22.859375 49.273438 18.722656 44.183594 18.722656 C 39.097656 18.722656 34.957031 22.859375 34.957031 27.949219 L 34.957031 33.175781 C 34.957031 36.355469 36.574219 39.167969 39.027344 40.824219 L 33.023438 42.144531 C 32.765625 42.199219 32.511719 42.269531 32.265625 42.347656 L 32.265625 31.035156 C 32.265625 30.28125 31.652344 29.667969 30.898438 29.667969 L 21.601562 29.667969 C 20.847656 29.667969 20.234375 30.28125 20.234375 31.035156 C 20.234375 31.789062 20.847656 32.402344 21.601562 32.402344 L 29.53125 32.402344 L 29.53125 51.542969 L 20.234375 51.542969 L 20.234375 44.707031 C 20.234375 42.445312 18.394531 40.605469 16.132812 40.605469 C 13.871094 40.605469 12.03125 42.445312 12.03125 44.707031 L 12.03125 51.542969 L 2.734375 51.542969 L 2.734375 32.402344 L 10.664062 32.402344 C 11.417969 32.402344 12.03125 31.789062 12.03125 31.035156 C 12.03125 30.28125 11.417969 29.667969 10.664062 29.667969 L 1.367188 29.667969 C 0.613281 29.667969 0 30.28125 0 31.035156 L 0 52.910156 C 0 53.664062 0.613281 54.277344 1.367188 54.277344 L 12.03125 54.277344 L 12.03125 56.875 L 11.894531 56.875 C 9.558594 56.875 7.65625 58.777344 7.65625 61.113281 L 7.65625 61.796875 L 1.367188 61.796875 C 0.613281 61.796875 0 62.410156 0 63.164062 L 0 68.632812 C 0 69.386719 0.613281 70 1.367188 70 L 68.632812 70 C 69.386719 70 70 69.386719 70 68.632812 L 70 46.757812 C 70 46.003906 69.386719 45.390625 68.632812 45.390625 Z M 60.316406 61.796875 L 52.5 61.796875 L 52.5 59.0625 L 67.265625 59.0625 L 67.265625 61.796875 Z M 67.265625 56.328125 L 52.5 56.328125 L 52.5 53.59375 L 67.265625 53.59375 Z M 67.265625 50.859375 L 52.5 50.859375 L 52.5 48.125 L 59.457031 48.125 C 59.460938 48.125 59.464844 48.125 59.46875 48.125 C 59.472656 48.125 59.476562 48.125 59.480469 48.125 L 67.265625 48.125 Z M 37.691406 27.949219 C 37.691406 24.367188 40.605469 21.457031 44.183594 21.457031 C 47.59375 21.457031 50.398438 24.097656 50.65625 27.4375 L 47.480469 25.570312 C 46.902344 25.234375 46.167969 25.359375 45.738281 25.871094 C 44.355469 27.523438 42.324219 28.472656 40.167969 28.472656 L 37.691406 28.472656 Z M 37.691406 31.207031 L 40.167969 31.207031 C 42.742188 31.207031 45.1875 30.226562 47.03125 28.480469 L 50.675781 30.621094 L 50.675781 33.179688 C 50.675781 36.757812 47.765625 39.671875 44.183594 39.671875 C 40.605469 39.671875 37.691406 36.757812 37.691406 33.179688 Z M 46.328125 42.152344 L 44.164062 47.933594 L 41.996094 42.140625 C 42.699219 42.3125 43.429688 42.40625 44.183594 42.40625 C 44.921875 42.40625 45.636719 42.316406 46.328125 42.152344 Z M 30.898438 54.277344 C 31.652344 54.277344 32.265625 53.664062 32.265625 52.910156 L 32.265625 45.304688 C 32.6875 45.082031 33.136719 44.917969 33.609375 44.816406 L 39.589844 43.503906 L 42.882812 52.316406 C 43.082031 52.847656 43.59375 53.203125 44.164062 53.203125 C 44.734375 53.203125 45.246094 52.847656 45.445312 52.316406 L 48.738281 43.503906 L 54.757812 44.816406 C 55.285156 44.933594 55.785156 45.128906 56.246094 45.390625 L 51.132812 45.390625 C 50.378906 45.390625 49.765625 46.003906 49.765625 46.757812 L 49.765625 61.796875 L 29.417969 61.796875 L 29.417969 54.277344 Z M 26.683594 54.277344 L 26.683594 61.796875 L 24.609375 61.796875 L 24.609375 61.113281 C 24.609375 58.777344 22.707031 56.875 20.371094 56.875 L 20.234375 56.875 L 20.234375 54.277344 Z M 14.765625 44.707031 C 14.765625 43.953125 15.378906 43.339844 16.132812 43.339844 C 16.886719 43.339844 17.5 43.953125 17.5 44.707031 L 17.5 56.875 L 14.765625 56.875 Z M 10.390625 61.113281 C 10.390625 60.285156 11.066406 59.609375 11.894531 59.609375 L 20.371094 59.609375 C 21.199219 59.609375 21.875 60.285156 21.875 61.113281 L 21.875 61.796875 L 10.390625 61.796875 Z M 67.265625 67.265625 L 2.734375 67.265625 L 2.734375 64.53125 L 67.265625 64.53125 Z M 67.265625 67.265625 "/>
<path style=" stroke:none;fill-rule:nonzero;fill:rgb(0%,0%,0%);fill-opacity:1;" d="M 15.167969 30.070312 C 14.910156 30.324219 14.765625 30.675781 14.765625 31.035156 C 14.765625 31.394531 14.910156 31.746094 15.167969 32 C 15.421875 32.257812 15.773438 32.402344 16.132812 32.402344 C 16.492188 32.402344 16.84375 32.257812 17.097656 32 C 17.355469 31.746094 17.5 31.394531 17.5 31.035156 C 17.5 30.675781 17.355469 30.324219 17.097656 30.070312 C 16.84375 29.8125 16.492188 29.667969 16.132812 29.667969 C 15.773438 29.667969 15.421875 29.8125 15.167969 30.070312 Z M 15.167969 30.070312 "/>
</g>
</svg>
